<svg xmlns="http://www.w3.org/2000/svg"  viewBox="0 0 64 64" width="50px" height="50px"><path d="M 32 10 C 19.85 10 10 19.85 10 32 C 10 44.15 19.85 54 32 54 C 44.15 54 54 44.15 54 32 C 54 19.85 44.15 10 32 10 z M 32 14 C 41.941 14 50 22.059 50 32 C 50 41.941 41.941 50 32 50 C 22.059 50 14 41.941 14 32 C 14 22.059 22.059 14 32 14 z M 37.931641 22.808594 C 35.092641 22.808594 32.791016 25.139719 32.791016 28.011719 C 32.791016 28.419719 32.923828 29.195312 32.923828 29.195312 C 32.923828 29.195312 26.719172 29.233766 22.326172 23.759766 C 22.326172 23.759766 21.649859 24.674953 21.630859 26.376953 C 21.597859 29.262953 23.917969 30.705078 23.917969 30.705078 C 23.917969 30.705078 22.750891 30.736687 21.587891 30.054688 C 21.692891 34.523687 25.712891 35.222656 25.712891 35.222656 C 25.712891 35.222656 24.413625 35.473547 23.390625 35.310547 C 24.045625 37.377547 25.945312 38.884781 28.195312 38.925781 C 26.436312 40.321781 24.217594 41.152344 21.808594 41.152344 C 21.394594 41.152344 20.986031 41.129078 20.582031 41.080078 C 21.776031 42.388078 25.560844 43.417969 28.464844 43.417969 C 37.922844 43.417969 43.091797 35.488281 43.091797 28.613281 C 43.091797 28.388281 43.086172 28.164406 43.076172 27.941406 C 44.083172 27.207406 44.956531 26.292094 45.644531 25.246094 C 44.241531 25.891094 42.691406 26.066406 42.691406 26.066406 C 42.691406 26.066406 44.503172 25.0045 44.951172 23.1875 C 43.958172 23.7835 42.858547 24.217172 41.685547 24.451172 C 40.747547 23.440172 39.410641 22.808594 37.931641 22.808594 z"/></svg>